<svg xmlns="http://www.w3.org/2000/svg" width="211.133" height="50.318" viewBox="0 0 211.133 50.318">
  <g id="XMLID_59_" transform="translate(-73.642 -340.638)">
    <g id="lr--2_1_" transform="translate(73.642 340.638)">
      <path id="XMLID_142_" d="M14.037,427.578H6.5L-4.861,407.953H.954A6.426,6.426,0,0,0,5.5,406.09a6.066,6.066,0,0,0,1.863-4.634A6.408,6.408,0,0,0,1,395.1H-12.175l-3.725-6.5H1.136a12.763,12.763,0,0,1,9.177,3.725,12.4,12.4,0,0,1,3.725,9.177,11.279,11.279,0,0,1-2.226,7.314,11.2,11.2,0,0,1-5.588,4.861Z" transform="translate(26.121 -377.586)" fill="#fff"/>
      <path id="XMLID_141_" d="M-15.777,427.414H-27.043A11.284,11.284,0,0,1-38.4,416.148V388.3l6.5,11.357V415.33a5.584,5.584,0,0,0,5.588,5.588h6.723Z" transform="translate(38.4 -377.422)" fill="#fff"/>
      <g id="XMLID_137_" transform="translate(35.105 0)">
        <path id="XMLID_140_" d="M-277.489-17.841h0a1.427,1.427,0,0,0-1.863.363l-3.589,5.588a1.427,1.427,0,0,0,.363,1.863h0a1.427,1.427,0,0,0,1.863-.363l3.589-5.588A1.48,1.48,0,0,0-277.489-17.841Z" transform="translate(283.141 18.041)" fill="#fff"/>
        <path id="XMLID_139_" d="M-258.739,6.047h0a1.48,1.48,0,0,0-1.863-.363l-5.451,3.725a1.48,1.48,0,0,0-.363,1.863h0a1.48,1.48,0,0,0,1.863.363l5.451-3.725A1.272,1.272,0,0,0-258.739,6.047Z" transform="translate(274.113 5.193)" fill="#fff"/>
        <path id="XMLID_138_" d="M-255.559,39.871h0a1.511,1.511,0,0,0-1.181-1.726l-6.36-1.272a1.511,1.511,0,0,0-1.726,1.181h0a1.511,1.511,0,0,0,1.181,1.726l6.36,1.272a1.288,1.288,0,0,0,1.635-1.045Z" transform="translate(273.159 -11.914)" fill="#fff"/>
      </g>
    </g>
    <g id="XMLID_118_" transform="translate(134.861 348.616)">
      <path id="XMLID_136_" d="M212.216,358.2H208.4v19.716a2.515,2.515,0,0,0,2.726,2.726h12.765V377.1H212.216Z" transform="translate(-208.4 -358.2)" fill="#fff"/>
      <path id="XMLID_133_" d="M254.077,371.3h-2.635a6.848,6.848,0,0,0-4.725,1.726,6.3,6.3,0,0,0-1.817,4.634v4a6.09,6.09,0,0,0,6.542,6.36h2.635a6.848,6.848,0,0,0,4.725-1.726,6.3,6.3,0,0,0,1.817-4.634v-4a6.09,6.09,0,0,0-6.542-6.36Zm-5.315,6.451a3.4,3.4,0,0,1,.727-2.271,2.671,2.671,0,0,1,2-.818h2.635a2.671,2.671,0,0,1,2,.818,2.987,2.987,0,0,1,.727,2.271v3.816a3.023,3.023,0,0,1-.818,2.271,2.737,2.737,0,0,1-2.09.818h-2.453a2.671,2.671,0,0,1-2-.818,2.987,2.987,0,0,1-.727-2.271Z" transform="translate(-228.319 -365.349)" fill="#fff"/>
      <path id="XMLID_130_" d="M296.621,372.372a3.753,3.753,0,0,0-1-.636,5.36,5.36,0,0,0-2.271-.636h-2a6.821,6.821,0,0,0-3.362.818,5.694,5.694,0,0,0-2.271,2.362,7.178,7.178,0,0,0-.818,3.453v3.453a7.944,7.944,0,0,0,.727,3.362,5.836,5.836,0,0,0,2.181,2.271,6.138,6.138,0,0,0,3.18.818h2.181a4.839,4.839,0,0,0,2.181-.545,9.581,9.581,0,0,0,1-.636v1a3.665,3.665,0,0,1-.727,2.362,2.166,2.166,0,0,1-1.817.818h-2.635a2.232,2.232,0,0,1-1.363-.454,1.3,1.3,0,0,1-.545-1.09v-.363h-3.816v.454a4.9,4.9,0,0,0,1.726,3.453,5.633,5.633,0,0,0,3.907,1.272h2.635a6.3,6.3,0,0,0,4.634-1.817,6.921,6.921,0,0,0,1.726-4.815V371.463h-3.634v1h.182Zm-1.045,3a3.151,3.151,0,0,1,.909,2v3.18a4.607,4.607,0,0,1-1,2.635,2.717,2.717,0,0,1-2.09,1h-2.181a2.11,2.11,0,0,1-1.726-.818,3.577,3.577,0,0,1-.727-2.271v-3.271a3.637,3.637,0,0,1,.818-2.453,2.453,2.453,0,0,1,2-.909h2.09A3.74,3.74,0,0,1,295.576,375.37Z" transform="translate(-250.147 -365.24)" fill="#fff"/>
      <rect id="XMLID_129_" width="3.816" height="16.263" transform="translate(54.378 6.133)" fill="#fff"/>
      <path id="XMLID_128_" d="M329.353,358.8a2.262,2.262,0,0,0-1.726.636,2.413,2.413,0,0,0,0,3.453,2.4,2.4,0,0,0,1.726.636,2.444,2.444,0,0,0,1.726-4.089A3.1,3.1,0,0,0,329.353,358.8Z" transform="translate(-273.067 -358.527)" fill="#fff"/>
      <path id="XMLID_127_" d="M355.566,381.649a2.884,2.884,0,0,1-.636,2.09,2.036,2.036,0,0,1-1.726.727h-2.453a2.759,2.759,0,0,1-1.908-.727,3.066,3.066,0,0,1-.727-2.09v-4a3.4,3.4,0,0,1,.727-2.271,2.347,2.347,0,0,1,1.908-.818H353.2a2.262,2.262,0,0,1,1.726.636,1.944,1.944,0,0,1,.636,1.635v.454h3.725v-.454a5.041,5.041,0,0,0-1.726-4.089A6.227,6.227,0,0,0,353.2,371.2H350.66a6.08,6.08,0,0,0-6.36,6.451v4.089a6.075,6.075,0,0,0,6.451,6.269h2.544a6.17,6.17,0,0,0,4.452-1.726,6.55,6.55,0,0,0,1.726-4.543v-.454h-3.725v.363h-.182Z" transform="translate(-282.562 -365.294)" fill="#fff"/>
      <path id="XMLID_124_" d="M397.547,370.747a5.18,5.18,0,0,0,3.271-4.725v-2.181a5.206,5.206,0,0,0-1.635-4,6.226,6.226,0,0,0-4.361-1.545H383.6v22.442h3.816v-8.677h5.406a2.7,2.7,0,0,1,1.817.727,4.318,4.318,0,0,1,1.272,2.09l1.726,5.86h4l-1.908-6.224A7.757,7.757,0,0,0,397.547,370.747ZM387.325,361.8h7.314a2.221,2.221,0,0,1,1.635.545,1.977,1.977,0,0,1,.636,1.454v2.271a2.166,2.166,0,0,1-.818,1.817,3.315,3.315,0,0,1-2.181.727h-6.587V361.8Z" transform="translate(-304.009 -358.255)" fill="#fff"/>
      <path id="XMLID_121_" d="M436.213,371.3h-2.544a6.505,6.505,0,0,0-4.27,1.363,4.451,4.451,0,0,0-1.635,3.634v.454h3.725V376.3a1.3,1.3,0,0,1,.545-1.09,2.7,2.7,0,0,1,1.635-.454h2.544a1.9,1.9,0,0,1,2.09,2.09v1.363a6.308,6.308,0,0,0-1.181-.454,8.808,8.808,0,0,0-2.09-.273h-1.908a6.645,6.645,0,0,0-4.089,1.272A4.344,4.344,0,0,0,427.4,382.2v1a4.6,4.6,0,0,0,1.545,3.543,6.194,6.194,0,0,0,4,1.272h1.817a5.417,5.417,0,0,0,2.544-.727,13.284,13.284,0,0,0,1.181-.818v1.272h3.634V376.8a5.205,5.205,0,0,0-1.635-4A6.068,6.068,0,0,0,436.213,371.3Zm2.044,10.312v.636a3.6,3.6,0,0,1-3.453,2.544h-1.817a2.312,2.312,0,0,1-1.454-.454,1.223,1.223,0,0,1-.454-1.09v-.909a1.3,1.3,0,0,1,.545-1.09,2.312,2.312,0,0,1,1.454-.454h2a7.568,7.568,0,0,1,2,.273A2.378,2.378,0,0,1,438.257,381.612Z" transform="translate(-327.911 -365.349)" fill="#fff"/>
      <path id="XMLID_120_" d="M477.794,381.195a4.3,4.3,0,0,1-1.272,2.362,2.761,2.761,0,0,1-2.09.909h-1.908a1.635,1.635,0,0,1-1.363-.636,2.883,2.883,0,0,1-.545-1.817V371.7H466.8v10.312a6.152,6.152,0,0,0,1.545,4.27,5.206,5.206,0,0,0,4,1.635h2a4.764,4.764,0,0,0,2.362-.727l1.09-.818v1.272a3.664,3.664,0,0,1-.727,2.362,2.166,2.166,0,0,1-1.817.818H472.8a2.232,2.232,0,0,1-1.363-.454,1.3,1.3,0,0,1-.545-1.09v-.363h-3.816v.454a4.9,4.9,0,0,0,1.726,3.453,5.633,5.633,0,0,0,3.907,1.272h2.453a6.3,6.3,0,0,0,4.634-1.817,6.921,6.921,0,0,0,1.726-4.815V371.745H477.7v9.495h.091Z" transform="translate(-349.412 -365.567)" fill="#fff"/>
      <path id="XMLID_119_" d="M519.356,379.931a5.148,5.148,0,0,0-2.817-1.363l-5.315-.909a2.13,2.13,0,0,1-.909-.454.544.544,0,0,1-.273-.545v-.727a1.262,1.262,0,0,1,.454-.909,2.6,2.6,0,0,1,1.545-.363h2.544a2.232,2.232,0,0,1,1.363.454,1.649,1.649,0,0,1,.545,1.272v.454h3.725v-.454a4.859,4.859,0,0,0-1.545-3.725,5.767,5.767,0,0,0-4-1.363h-2.635a6.7,6.7,0,0,0-4.179,1.181,3.885,3.885,0,0,0-1.635,3.271v1a3.4,3.4,0,0,0,1.181,2.635,5.126,5.126,0,0,0,3,1.363l5.315.909a1.713,1.713,0,0,1,.818.363.786.786,0,0,1,.272.545v.909a1.077,1.077,0,0,1-.454.818,2.732,2.732,0,0,1-1.635.363H512a2.221,2.221,0,0,1-1.635-.545,2.192,2.192,0,0,1-.636-1.545v-.454H506v.454a5.206,5.206,0,0,0,1.635,4A6.18,6.18,0,0,0,512,388.018h2.726a6.984,6.984,0,0,0,4.27-1.181,3.97,3.97,0,0,0,1.726-3.271v-1.181A5.058,5.058,0,0,0,519.356,379.931Z" transform="translate(-370.804 -365.349)" fill="#fff"/>
    </g>
    <g id="XMLID_100_" transform="translate(150.307 382.733)">
      <path id="XMLID_115_" d="M247.942,441.577l-.5-1.59h-2.817l-.545,1.59H242.4l2.726-7.677h1.863l2.726,7.677Zm-1.908-6h0l-1,3.044h1.953Z" transform="translate(-242.4 -433.627)" fill="#fff"/>
      <path id="XMLID_113_" d="M289.56,438.615a4.521,4.521,0,0,1-.409,1.181,2.809,2.809,0,0,1-.681.909,2.44,2.44,0,0,1-1,.591,3.469,3.469,0,0,1-1.227.227,3.7,3.7,0,0,1-1.408-.273,2.813,2.813,0,0,1-1.136-.772,3.462,3.462,0,0,1-.727-1.272,5.1,5.1,0,0,1-.273-1.726,7.268,7.268,0,0,1,.227-1.772,4.107,4.107,0,0,1,.727-1.317,2.917,2.917,0,0,1,1.136-.818,4.1,4.1,0,0,1,2.817-.045,2.439,2.439,0,0,1,1,.591,4.073,4.073,0,0,1,.681.863,2.778,2.778,0,0,1,.318,1.09h-1.59a1.782,1.782,0,0,0-.636-1.045,1.715,1.715,0,0,0-1.045-.363,1.632,1.632,0,0,0-1.5.727,4.625,4.625,0,0,0,0,4,1.529,1.529,0,0,0,1.408.727,1.512,1.512,0,0,0,1.136-.409,2.094,2.094,0,0,0,.591-1.136h1.59Z" transform="translate(-264.392 -433.3)" fill="#fff"/>
      <path id="XMLID_110_" d="M327.942,441.577l-.5-1.59h-2.817l-.545,1.59H322.4l2.726-7.677h1.863l2.726,7.677Zm-1.908-6h0l-1,3.044h1.953Z" transform="translate(-286.057 -433.627)" fill="#fff"/>
      <path id="XMLID_107_" d="M364.7,441.577V433.9h2.953a3.936,3.936,0,0,1,1.454.273,3.254,3.254,0,0,1,1.136.727,3.454,3.454,0,0,1,.727,1.181,4.321,4.321,0,0,1,.273,1.59,5.591,5.591,0,0,1-.227,1.59,2.7,2.7,0,0,1-.681,1.227,3.1,3.1,0,0,1-1.045.818,3.32,3.32,0,0,1-1.363.273H364.7Zm2.862-1.317a1.887,1.887,0,0,0,1.545-.636,3.361,3.361,0,0,0,.454-1.953,3.545,3.545,0,0,0-.136-1.09,2.028,2.028,0,0,0-.363-.772,1.317,1.317,0,0,0-.681-.409,3.123,3.123,0,0,0-1-.136H366.2v5.043h1.363Z" transform="translate(-309.141 -433.627)" fill="#fff"/>
      <path id="XMLID_105_" d="M405.6,441.577V433.9h5.633v1.363h-4.089V436.9h3.771v1.363h-3.771v2h4.27v1.363H405.6Z" transform="translate(-331.46 -433.627)" fill="#fff"/>
      <path id="XMLID_103_" d="M450.551,441.577v-5.27l-1.454,5.27h-1.59l-1.408-5.224v5.224h-1.5V433.9h2.362l1.408,5.633,1.408-5.633H452.1v7.677Z" transform="translate(-352.743 -433.627)" fill="#fff"/>
      <path id="XMLID_101_" d="M489.88,441.577V438.67l-2.68-4.77h1.863l1.635,3.135,1.5-3.135h1.863l-2.589,4.815v2.862Z" transform="translate(-375.991 -433.627)" fill="#fff"/>
    </g>
  </g>
</svg>
